<?xml version="1.0"?>
<svg xmlns="http://www.w3.org/2000/svg" xmlns:xlink="http://www.w3.org/1999/xlink" viewBox="0 0 64 64" width="512" height="512"><defs><linearGradient id="New_Gradient_Swatch_2" x1="21" y1="2.743" x2="21" y2="64.821" gradientUnits="userSpaceOnUse"><stop offset="0" stop-color="#fc5c7d"/><stop offset="0.129" stop-color="#f35e85"/><stop offset="0.343" stop-color="#d9659b"/><stop offset="0.616" stop-color="#b070bf"/><stop offset="0.934" stop-color="#777ff0"/><stop offset="1" stop-color="#6a82fb"/></linearGradient><linearGradient id="New_Gradient_Swatch_2-3" x1="31.5" y1="2.743" x2="31.5" y2="64.821" xlink:href="#New_Gradient_Swatch_2"/><linearGradient id="New_Gradient_Swatch_2-4" x1="3" y1="2.743" x2="3" y2="64.821" xlink:href="#New_Gradient_Swatch_2"/><linearGradient id="New_Gradient_Swatch_2-6" x1="54.799" y1="2.743" x2="54.799" y2="64.821" xlink:href="#New_Gradient_Swatch_2"/></defs><title>Capital-venture-money-investment-loan</title><g id="_001GradL" data-name="001GradL"><path d="M22,35.145V34H20v1.145a2.844,2.844,0,0,0-.422,5.262l1.949.975A.854.854,0,0,1,21.146,43h-.292A.856.856,0,0,1,20,42.146V42H18v.146a2.849,2.849,0,0,0,2,2.709V46h2V44.855a2.844,2.844,0,0,0,.422-5.262l-1.949-.975A.854.854,0,0,1,20.854,37h.292a.856.856,0,0,1,.854.854V38h2v-.146A2.849,2.849,0,0,0,22,35.145Z" style="fill:url(#New_Gradient_Swatch_2)"/><path d="M31,40A10,10,0,1,0,21,50,10.011,10.011,0,0,0,31,40ZM21,48a8,8,0,1,1,8-8A8.009,8.009,0,0,1,21,48Z" style="fill:url(#New_Gradient_Swatch_2)"/><path d="M58,41a1,1,0,0,0-1-1H54V34.176A13.026,13.026,0,0,0,48.556,23.6L47,22.486V19a1,1,0,0,0-1-1h-.72l1.113-4.448A2.86,2.86,0,0,0,43.619,10a2.881,2.881,0,0,0-1.715.572L39,12.75l-2.9-2.179A2.886,2.886,0,0,0,34.381,10a2.86,2.86,0,0,0-2.774,3.552L32.72,18H32a1,1,0,0,0-.992.963c-.153-.12-.294-.253-.452-.366L29,17.486V14a1,1,0,0,0-1-1h-.72l1.113-4.448A2.86,2.86,0,0,0,25.619,5a2.881,2.881,0,0,0-1.715.572L21,7.75,18.1,5.571A2.886,2.886,0,0,0,16.381,5a2.86,2.86,0,0,0-2.774,3.552L14.72,13H14a1,1,0,0,0-1,1v3.486L11.444,18.6A13.026,13.026,0,0,0,6,29.176V53a8.985,8.985,0,0,0,3.355,7H2v2H61V60H58ZM33,20.892V20H45v2H33.83A12.941,12.941,0,0,0,33,20.892Zm3,15.7A7.893,7.893,0,0,1,39,36a8.008,8.008,0,0,1,6.914,4H41.3a2.822,2.822,0,0,0-1.3-.859V38H38v1.141A2.822,2.822,0,0,0,36.7,40H36ZM41,42v2H34V42Zm-7,4h7v2H34Zm0,4h7v2H34Zm0,4h7v2H34Zm9-12h4V60H43ZM56,52H49V50h7Zm0-4H49V46h7Zm-7,6h7v2H49Zm7-10H49V42h7Zm-4-9.824V40H48.165A9.932,9.932,0,0,0,36,34.478v-5.3A12.974,12.974,0,0,0,34.9,24H45.68l1.714,1.224A11.024,11.024,0,0,1,52,34.176ZM33.547,13.067a.853.853,0,0,1,.157-.737.882.882,0,0,1,1.192-.158L38.4,14.8a1,1,0,0,0,1.2,0l3.5-2.627a.881.881,0,0,1,1.192.157.853.853,0,0,1,.157.737L43.22,18H34.78ZM27,17H15V15H27ZM15.547,8.067A.853.853,0,0,1,15.7,7.33.881.881,0,0,1,16.9,7.172L20.4,9.8a1,1,0,0,0,1.2,0l3.5-2.627A.881.881,0,0,1,26.3,7.33a.853.853,0,0,1,.157.737L25.22,13H16.78ZM15,60a7.009,7.009,0,0,1-7-7V29.176a11.024,11.024,0,0,1,4.606-8.952L14.32,19H27.68l1.714,1.224A11.024,11.024,0,0,1,34,29.176V40H33a1,1,0,0,0-1,1V57.883A7,7,0,0,1,27,60Zm19-2h7v2H34Zm15,2V58h7v2Z" style="fill:url(#New_Gradient_Swatch_2-3)"/><rect x="2" y="32" width="2" height="22" style="fill:url(#New_Gradient_Swatch_2-4)"/><rect x="2" y="28" width="2" height="2" style="fill:url(#New_Gradient_Swatch_2-4)"/><path d="M58,36V34.6a17.632,17.632,0,0,0-4.963-12.3L51.6,23.694A15.643,15.643,0,0,1,56,34.6V36Z" style="fill:url(#New_Gradient_Swatch_2-6)"/></g></svg>
