<svg id="Layer_5" enable-background="new 0 0 64 64" height="512" viewBox="0 0 64 64" width="512" xmlns="http://www.w3.org/2000/svg" xmlns:xlink="http://www.w3.org/1999/xlink"><linearGradient id="SVGID_1_" gradientUnits="userSpaceOnUse" x1="32" x2="32" y1="63" y2="1"><stop offset="0" stop-color="#9f2fff"/><stop offset="1" stop-color="#0bb1d3"/></linearGradient><path d="m16.791 29.552-4.189-3.59c-.725-.62-1.65-.962-2.602-.962-1.168 0-2.274.509-3.034 1.395-.868 1.01-1.171 2.337-.831 3.644.203.774.669 1.491 1.348 2.072l6.386 5.473c1.717 1.475 4.171 1.827 6.254.896 1.218-.544 2.24-1.567 2.878-2.856v4.991l-2.865 2.865 1.28 2.136-2.416.603v7.562l2.415.603-1.28 2.136 5.346 5.346 2.136-1.28.602 2.414h7.562l.603-2.415 2.136 1.28 5.346-5.346-1.28-2.136 2.414-.602v-7.562l-2.415-.603 1.28-2.136-2.865-2.865v-4.992c.638 1.288 1.66 2.311 2.879 2.856.773.346 1.598.515 2.417.515 1.387 0 2.757-.483 3.835-1.41l6.388-5.474c.68-.582 1.146-1.299 1.347-2.073.34-1.306.037-2.633-.83-3.642-.762-.886-1.868-1.395-3.036-1.395-.953 0-1.878.342-2.603.963l-4.188 3.589c-1.731-3.908-5.641-6.5-9.941-6.547 1.671-1.468 2.732-3.613 2.732-6.005 0-4.411-3.589-8-8-8s-8 3.589-8 8c0 2.392 1.061 4.537 2.731 6.004-4.301.048-8.21 2.641-9.94 6.548zm23.757 17.617 2.452.612v4.438l-1.949.486-.534.202-.465 1.143 1.296 2.159-3.139 3.139-2.159-1.296-1.219.496-.612 2.452h-4.438l-.486-1.949-.202-.534-1.143-.465-2.159 1.296-3.139-3.139 1.296-2.159-.496-1.219-2.452-.612v-4.438l1.949-.486.534-.202.465-1.143-1.296-2.159 3.139-3.139 2.159 1.296 1.219-.496.612-2.452h4.438l.486 1.949.202.534 1.143.465 2.159-1.296 3.139 3.139-1.296 2.159zm-13.138-22.169h2.254l-.844 5.683c-.616-1.848-1.084-3.746-1.41-5.683zm2.878 9.415 1.398-9.415h.632l1.419 9.366c-.406.893-.854 1.77-1.332 2.634h-.808c-.47-.849-.909-1.709-1.309-2.585zm4.905-3.775-.854-5.64h2.251c-.324 1.922-.787 3.805-1.397 5.64zm10.384.201.777 2.077 6.344-5.436c.808-.693 2.127-.592 2.82.217.434.504.584 1.173.411 1.834-.124.477-.456.838-.712 1.058l-6.389 5.475c-1.15.99-2.736 1.213-4.134.588-.925-.413-1.688-1.271-2.094-2.354l-1.015-2.704c-.139-.371-.346-.708-.587-1.021v-2.575h-2v10.615l-.48-.48-2.136 1.28-.601-2.415h-1.104c1.931-3.735 3.241-7.72 3.918-11.877 3.137.517 5.844 2.683 6.982 5.718zm-19.577-13.841c0-3.309 2.691-6 6-6s6 2.691 6 6-2.691 6-6 6-6-2.691-6-6zm-.595 8.123c.677 4.157 1.987 8.142 3.918 11.877h-1.104l-.603 2.415-2.136-1.28-.48.48v-10.615h-2v2.581c-.24.311-.448.643-.587 1.013l-1.015 2.706c-.406 1.083-1.169 1.941-2.093 2.354-1.398.625-2.984.4-4.136-.589l-6.387-5.474c-.256-.22-.588-.581-.713-1.058-.173-.661-.022-1.33.412-1.835.691-.808 2.011-.907 2.819-.218l6.342 5.437.78-2.076c1.139-3.035 3.846-5.2 6.983-5.718zm26.595-24.123c-6.065 0-11 4.935-11 11s4.935 11 11 11 11-4.935 11-11-4.935-11-11-11zm0 20c-4.963 0-9-4.037-9-9s4.037-9 9-9 9 4.037 9 9-4.037 9-9 9zm-2-12v1c0 .552.448 1 1 1h2c1.654 0 3 1.346 3 3v3h-3v2h-2v-2c-1.654 0-3-1.346-3-3h2c0 .552.448 1 1 1h3v-1c0-.552-.448-1-1-1h-2c-1.654 0-3-1.346-3-3v-3h3v-2h2v2c1.654 0 3 1.346 3 3h-2c0-.552-.448-1-1-1zm-18 34c-3.859 0-7 3.141-7 7s3.141 7 7 7 7-3.141 7-7-3.141-7-7-7zm0 12c-2.757 0-5-2.243-5-5s2.243-5 5-5 5 2.243 5 5-2.243 5-5 5zm-28-36h1.382l1.383 2.765c.381.761 1.147 1.235 1.999 1.235 1.233 0 2.236-1.003 2.236-2.236v-1.764h7c1.654 0 3-1.346 3-3v-8c0-1.654-1.346-3-3-3h-14c-1.654 0-3 1.346-3 3v8c0 1.654 1.346 3 3 3zm-1-11c0-.552.448-1 1-1h14c.552 0 1 .448 1 1v8c0 .552-.448 1-1 1h-9v3.764c.001.22-.35.301-.447.105l-1.935-3.869h-2.618c-.552 0-1-.448-1-1zm14 3h-12v-2h12zm-4 4h-8v-2h8zm2-2h2v2h-2zm45 32h-10c-1.654 0-3 1.346-3 3v8c0 1.654 1.346 3 3 3h10c1.654 0 3-1.346 3-3v-8c0-1.654-1.346-3-3-3zm1 11c0 .552-.448 1-1 1h-10c-.552 0-1-.448-1-1v-8c0-.552.448-1 1-1h10c.552 0 1 .448 1 1zm-2.707-6.707 1.414 1.414-3.707 3.707-2-2-2.293 2.293-1.414-1.414 3.707-3.707 2 2zm-44.293-1.465c0 1.022-.398 1.984-1.121 2.707l-1.879 1.879v2.586h-2v-3.414l2.465-2.465c.34-.34.535-.811.535-1.293 0-1.008-.82-1.828-1.828-1.828h-.344c-1.008 0-1.828.82-1.828 1.828v1.172h-2v-1.172c0-2.11 1.718-3.828 3.828-3.828h.344c2.11 0 3.828 1.718 3.828 3.828zm-4 9.172c-1.654 0-3 1.346-3 3s1.346 3 3 3 3-1.346 3-3-1.346-3-3-3zm0 4c-.552 0-1-.448-1-1s.448-1 1-1 1 .448 1 1-.448 1-1 1z" fill="url(#SVGID_1_)"/></svg>