<svg id="Layer_5" enable-background="new 0 0 64 64" height="512" viewBox="0 0 64 64" width="512" xmlns="http://www.w3.org/2000/svg" xmlns:xlink="http://www.w3.org/1999/xlink"><linearGradient id="SVGID_1_" gradientUnits="userSpaceOnUse" x1="32" x2="32" y1="63" y2="1"><stop offset="0" stop-color="#9f2fff"/><stop offset="1" stop-color="#0bb1d3"/></linearGradient><path d="m13 57h2v2h-2zm-8 2h2v-2h-2zm4 0h2v-2h-2zm-4-4h10v-2h-10zm58-3c0 .999-.555 1.896-1.448 2.342l-9.316 4.658h-21.236v1c0 1.654-1.346 3-3 3h-24c-1.654 0-3-1.346-3-3v-20c0-1.654 1.346-3 3-3h24c1.654 0 3 1.346 3 3v5h6.11c-1.074-1.051-1.806-2.443-2.031-4h-.079c-1.654 0-3-1.346-3-3 0-1.307.846-2.41 2.015-2.82l-5.075-6.09c-2.097-2.516-3.401-5.591-3.798-8.818l-5.728 5.728h-18.414v-2h2v-8h2v8h2v-4h2v4h2v-8h2v8h2v-6h2v6h1.586l6.436-6.436c.234-9.171 7.751-16.564 16.978-16.564 9.374 0 17 7.626 17 17v.207c0 3.969-1.399 7.834-3.94 10.883l-5.074 6.089c1.168.411 2.014 1.514 2.014 2.821 0 1.654-1.346 3-3 3h-.08c-.224 1.557-.956 2.949-2.031 4h5.346l9.317 4.658c.893.446 1.448 1.343 1.448 2.342zm-32.523-24.19 5.991 7.19h1.182l-7.171-23.561 7.34 2.447 4.181-3.136 4.181 3.136 7.34-2.447-7.172 23.561h1.182l5.992-7.19c2.242-2.691 3.477-6.101 3.477-9.603v-.207c0-8.271-6.729-15-15-15s-15 6.729-15 15v.207c0 3.502 1.235 6.912 3.477 9.603zm12.523-9.81v17h1.259l6.22-20.439-4.66 1.553-3.819-2.864-3.819 2.864-4.66-1.553 6.22 20.439h1.259v-17zm-8 21h14c.551 0 1-.449 1-1s-.449-1-1-1h-14c-.551 0-1 .449-1 1s.449 1 1 1zm7 6c2.414 0 4.434-1.721 4.899-4h-9.798c.465 2.279 2.485 4 4.899 4zm-11 2v4h20v-4zm-12-6v2h2v-4h-10v4h2v-2h2v2h2v-2zm10-1c0-.551-.449-1-1-1h-5v6h-14v-6h-5c-.551 0-1 .449-1 1v20c0 .551.449 1 1 1h24c.551 0 1-.449 1-1zm2 17h20v-4h-20zm30-5c0-.236-.131-.447-.341-.553l-7.659-3.829v8.764l7.658-3.829c.211-.106.342-.317.342-.553z" fill="url(#SVGID_1_)"/></svg>