<svg id="Layer_5" enable-background="new 0 0 64 64" height="512" viewBox="0 0 64 64" width="512" xmlns="http://www.w3.org/2000/svg" xmlns:xlink="http://www.w3.org/1999/xlink"><linearGradient id="SVGID_1_" gradientUnits="userSpaceOnUse" x1="32" x2="32" y1="63" y2="1"><stop offset="0" stop-color="#9f2fff"/><stop offset="1" stop-color="#0bb1d3"/></linearGradient><path d="m51 16c0-4.963-4.037-9-9-9s-9 4.037-9 9 4.037 9 9 9 9-4.037 9-9zm-16 0c0-3.859 3.141-7 7-7s7 3.141 7 7-3.141 7-7 7-7-3.141-7-7zm15.816 15c-.414-1.161-1.514-2-2.816-2v-.887l1.931 1.169 5.352-5.352-1.492-2.465c.154-.331.293-.663.416-.995l2.793-.686v-7.568l-2.794-.687c-.123-.332-.262-.664-.416-.995l1.492-2.465-5.352-5.352-2.464 1.493c-.331-.154-.663-.293-.995-.416l-.687-2.794h-7.568l-.687 2.794c-.332.123-.664.262-.995.416l-2.465-1.492-5.352 5.352 1.492 2.465c-.154.331-.293.663-.416.995l-2.793.686v2.784h-8.726c1.667-1.467 2.726-3.61 2.726-6 0-4.411-3.589-8-8-8s-8 3.589-8 8c0 2.518 1.172 4.765 2.997 6.233-4.001.914-6.997 4.494-6.997 8.767v11c0 2.757 2.243 5 5 5v19c0 2.206 1.794 4 4 4 1.201 0 2.266-.542 3-1.382.734.84 1.799 1.382 3 1.382 2.206 0 4-1.794 4-4v-37h9.887l-1.169 1.931 5.352 5.352 1.93-1.17v.887c-1.302 0-2.402.839-2.816 2h-5.346l-6.838 2.279v18.108l6-2v8.613c0 2.757 2.243 5 5 5h20c2.757 0 5-2.243 5-5v-8.613l6 2v-18.108l-6.838-2.279zm-21.816 2h4.184c.133.374.335.711.596 1-.48.532-.78 1.229-.78 2 0 1.654 1.346 3 3 3 0 3.309 2.691 6 6 6s6-2.691 6-6c1.654 0 3-1.346 3-3 0-.771-.301-1.468-.78-2 .26-.289.463-.626.596-1h4.184v14h-26zm20 3c0 .552-.448 1-1 1h-2-10c-.552 0-1-.448-1-1s.448-1 1-1h12c.552 0 1 .448 1 1zm-3 3c0 2.206-1.794 4-4 4s-4-1.794-4-4zm-36-22h.784l-.291 4.079c-.456-1.317-.792-2.675-1.003-4.053.169-.012.338-.026.51-.026zm2.788 0h.424l.566 7.925c-.246.431-.504.856-.778 1.27-.274-.417-.531-.845-.777-1.28zm2.723 4.124-.295-4.124h1.328c-.217 1.403-.562 2.785-1.033 4.124zm-8.511-12.124c0-3.309 2.691-6 6-6s6 2.691 6 6-2.691 6-6 6-6-2.691-6-6zm11 11v39c0 1.103-.897 2-2 2s-2-.897-2-2v-18-.758c0-.526.214-1.042.586-1.414l1.121-1.121-1.414-1.414-1.121 1.121c-.745.744-1.172 1.775-1.172 2.828v.758 18c0 1.103-.897 2-2 2s-2-.897-2-2v-38h-2v17c-1.654 0-3-1.346-3-3v-11c0-2.99 1.888-5.541 4.532-6.542.564 3.553 1.893 6.981 3.89 9.977l1.578 2.369 1.617-2.428c2.07-3.105 3.422-6.681 3.947-10.376h8.436v2.784l.878.216zm18.512 5.466-2.138 1.293-3.133-3.133 1.255-2.074-.259-.498c-.298-.573-.541-1.154-.722-1.725l-.169-.536-2.346-.577v-4.432l2.347-.577.169-.536c.181-.57.424-1.151.722-1.725l.259-.498-1.255-2.074 3.133-3.133 2.074 1.255.498-.259c.573-.298 1.154-.541 1.725-.722l.536-.169.576-2.346h4.432l.577 2.347.536.169c.57.181 1.151.424 1.725.722l.498.259 2.074-1.255 3.133 3.133-1.255 2.074.259.498c.298.573.541 1.154.722 1.725l.169.536 2.346.576v4.432l-2.347.577-.169.536c-.181.57-.424 1.151-.722 1.725l-.259.498 1.255 2.074-3.133 3.133-2.094-1.267-1.531.864v2.644h-8v-2.688zm-.512 5.534h10 2c.552 0 1 .448 1 1s-.448 1-1 1h-12c-.552 0-1-.448-1-1s.448-1 1-1zm-13 17.612v-13.891l4-1.333v13.892zm29 12.388h-20c-1.654 0-3-1.346-3-3v-9h26v9c0 1.654-1.346 3-3 3zm9-12.388-4-1.333v-13.892l4 1.333zm-28 8.388h9v2h-9c-1.103 0-2-.897-2-2v-2h2zm11 0h2v2h-2zm7-6h2v2h-2zm0 4h2v2h-2zm-9-42v-2c2.757 0 5 2.243 5 5h-2c0-1.654-1.346-3-3-3z" fill="url(#SVGID_1_)"/></svg>