<svg id="Layer_5" enable-background="new 0 0 64 64" height="512" viewBox="0 0 64 64" width="512" xmlns="http://www.w3.org/2000/svg" xmlns:xlink="http://www.w3.org/1999/xlink"><linearGradient id="SVGID_1_" gradientUnits="userSpaceOnUse" x1="32" x2="32" y1="63" y2="1"><stop offset="0" stop-color="#9f2fff"/><stop offset="1" stop-color="#0bb1d3"/></linearGradient><path d="m51 49v1c0 .552.449 1 1 1h2c1.654 0 3 1.346 3 3v3h-3v2h-2v-2c-1.654 0-3-1.346-3-3h2c0 .552.449 1 1 1h3v-1c0-.552-.449-1-1-1h-2c-1.654 0-3-1.346-3-3v-3h3v-2h2v2c1.654 0 3 1.346 3 3h-2c0-.552-.449-1-1-1zm10.48-1.719c.994 1.591 1.52 3.423 1.52 5.3v.419c0 5.514-4.486 10-10 10h-37c-1.2 0-2.266-.542-3-1.382-.734.84-1.8 1.382-3 1.382-2.206 0-4-1.794-4-4v-18h-1c-2.206 0-4-1.794-4-4v-10c0-5.129 3.241-9.504 7.777-11.218-2.263-1.415-3.777-3.922-3.777-6.782 0-4.411 3.589-8 8-8 3.719 0 6.845 2.555 7.737 6h22.677l10.586 10.586v15.636c.617.287 1.009.796 1.296 1.178.379.504.491.6.702.6s.322-.096.701-.601c.418-.556 1.051-1.399 2.301-1.399h3.618l-4.473 8.946zm-7.784-11.68c-.379-.505-.49-.601-.701-.601-.209 0-.32.096-.698.6-.418.558-1.049 1.4-2.299 1.4s-1.881-.843-2.299-1.4c-.379-.504-.49-.6-.699-.6h-.382l3 6h6.764l3-6h-.382c-.211 0-.323.096-.702.601-.418.557-1.05 1.399-2.3 1.399-1.251 0-1.883-.842-2.302-1.399zm-9.696-18.601h6.586l-6.586-6.586zm-31-2c3.309 0 6-2.691 6-6s-2.691-6-6-6-6 2.691-6 6 2.691 6 6 6zm-2.508 6.07.272-3.809c-.403.093-.795.212-1.178.352.212 1.172.516 2.329.906 3.457zm1.731 3.843c.247.436.503.866.777 1.284.274-.415.531-.842.778-1.274l-.565-7.911c-.072-.003-.141-.012-.213-.012s-.141.009-.212.011zm4.217-7.29c-.391-.144-.792-.267-1.205-.362l.275 3.854c.401-1.139.713-2.308.93-3.492zm-.44 43.377c1.103 0 2-.897 2-2v-38h2v18h1c1.103 0 2-.897 2-2v-10c0-3.564-1.88-6.69-4.694-8.461-.65 3.141-1.911 6.171-3.688 8.837l-1.618 2.427-1.579-2.368c-1.791-2.687-3.058-5.742-3.703-8.91-2.827 1.768-4.718 4.901-4.718 8.475v10c0 1.103.897 2 2 2h1v-18h2v38c0 1.103.897 2 2 2s2-.897 2-2v-18-.758c0-1.054.427-2.084 1.172-2.828l1.121-1.121 1.414 1.414-1.121 1.121c-.373.372-.586.888-.586 1.414v.758 18c0 1.103.897 2 2 2zm4-4h19v-10h-19zm27.026 4c-2.438-1.825-4.026-4.727-4.026-8v-.419c0-1.877.526-3.709 1.521-5.3l3.334-5.335-4.473-8.946h3.618c1.25 0 1.881.843 2.299 1.4.378.504.489.6.698.6.21 0 .321-.096.699-.6.288-.384.682-.897 1.304-1.183v-14.217h-10v-10h-21c0 2.86-1.514 5.367-3.777 6.782 4.536 1.714 7.777 6.089 7.777 11.218v10c0 2.206-1.794 4-4 4h-1v4h21v14h-21c0 .732-.212 1.409-.556 2zm13.974-8.419c0-1.501-.42-2.967-1.216-4.239l-3.338-5.342h-6.892l-3.338 5.342c-.796 1.272-1.216 2.738-1.216 4.239v.419c0 4.411 3.589 8 8 8s8-3.589 8-8zm-20-20.167v10.586h-14v-14h14v.586l3.293-3.293 1.414 1.414zm-2 2-6 6-3.707-3.707 1.414-1.414 2.293 2.293 6-6v-.586h-10v10h10zm1-15.414h-16v-8h16zm-2-6h-12v4h12zm-16 38h15v-2h-15zm0 4h11v-2h-11zm13 0h2v-2h-2zm-8-32h23v-2h-23zm0 4h2v-2h-2zm6 0v-2h-2v2zm4 0v-2h-2v2z" fill="url(#SVGID_1_)"/></svg>